<svg height="24" viewBox="0 0 24 24" width="24" xmlns="http://www.w3.org/2000/svg"><path d="m13 4c0-.55228475-.4477153-1-1-1s-1 .44771525-1 1v12.1707057c.3127789-.1105515.6493646-.1707057 1-.1707057s.6872211.0601542 1 .1707057v-1.1707057h-.5c-.2761424 0-.5-.2238576-.5-.5s.2238576-.5.5-.5h.5v-1h-.5c-.2761424 0-.5-.2238576-.5-.5s.2238576-.5.5-.5h.5v-1h-.5c-.2761424 0-.5-.2238576-.5-.5s.2238576-.5.5-.5h.5v-1h-.5c-.2761424 0-.5-.22385763-.5-.5s.2238576-.5.5-.5h.5v-1h-.5c-.2761424 0-.5-.22385763-.5-.5s.2238576-.5.5-.5h.5v-1h-.5c-.2761424 0-.5-.22385763-.5-.5s.2238576-.5.5-.5zm-3 12.7638935v-12.7638935c0-1.1045695.8954305-2 2-2s2 .8954305 2 2v12.7638935c.6137494.5493205 1 1.3476067 1 2.2361065 0 1.6568542-1.3431458 3-3 3s-3-1.3431458-3-3c0-.8884998.38625064-1.686786 1-2.2361065zm.7912793.6425476c-.4808153.365265-.7912793.9431556-.7912793 1.5935589 0 1.1045695.8954305 2 2 2s2-.8954305 2-2c0-.6504033-.310464-1.2282939-.7912793-1.5935589-.0058756-.0042183-.0116561-.0085609-.0173374-.0130238-.3327757-.2471799-.7450017-.3934173-1.1913833-.3934173s-.8586076.1462374-1.1913833.3934173c-.0056813.0044629-.0114618.0088055-.0173374.0130238zm1.2087207 2.5935589c-.5522847 0-1-.4477153-1-1s.4477153-1 1-1 1 .4477153 1 1-.4477153 1-1 1z"/></svg>